<svg version="1.1" xmlns="http://www.w3.org/2000/svg" xmlns:xlink="http://www.w3.org/1999/xlink" width="431" height="364"><defs/><g><g transform="translate(-110,-150) scale(1,1)"><path fill="#ffffff" stroke="none" d="M 304.5 168 L 359.5 168 Q 376 168 376 184.5 L 376 183.5 Q 376 200 359.5 200 L 304.5 200 Q 288 200 288 183.5 L 288 184.5 Q 288 168 304.5 168 Z"/></g><g transform="translate(-110,-150) scale(1,1)"><path fill="none" stroke="#000000" d="M 304.5 168 L 359.5 168 Q 376 168 376 184.5 L 376 183.5 Q 376 200 359.5 200 L 304.5 200 Q 288 200 288 183.5 L 288 184.5 Q 288 168 304.5 168 Z" stroke-miterlimit="10"/></g><g transform="translate(-110,-150) scale(1,1)"><g><path fill="none" stroke="none"/><text fill="#000000" stroke="none" font-family="Arial" font-size="13px" font-style="normal" font-weight="normal" text-decoration="none" x="318.273193359375" y="190.5">Start</text></g></g><g transform="translate(-110,-150) scale(1,1)"><rect fill="#ffffff" stroke="none" x="128" y="168" width="88.39892578125" height="32"/></g><g transform="translate(-110,-150) scale(1,1)"><path fill="none" stroke="#000000" d="M 128 168 L 216.39892578125 168 L 216.39892578125 200 L 128 200 L 128 168 Z Z" stroke-miterlimit="10"/></g><g transform="translate(-110,-150) scale(1,1)"><g><path fill="none" stroke="none"/><text fill="#000000" stroke="none" font-family="Arial" font-size="13px" font-style="normal" font-weight="normal" text-decoration="none" x="137.5" y="190.5">LoadBundle</text></g></g><g transform="translate(-110,-150) scale(1,1)"><rect fill="#ffffff" stroke="none" x="240" y="224" width="138.2470703125" height="32"/></g><g transform="translate(-110,-150) scale(1,1)"><path fill="none" stroke="#000000" d="M 240 224 L 378.2470703125 224 L 378.2470703125 256 L 240 256 L 240 224 Z Z" stroke-miterlimit="10"/></g><g transform="translate(-110,-150) scale(1,1)"><g><path fill="none" stroke="none"/><text fill="#000000" stroke="none" font-family="Arial" font-size="13px" font-style="normal" font-weight="normal" text-decoration="none" x="249.5" y="246.5">createBundleRunner</text></g></g><g transform="translate(-110,-150) scale(1,1)"><path fill="#ffffff" stroke="none" d="M 248 305.5 L 312 280 L 376 305.5 L 312 331 L 248 305.5"/></g><g transform="translate(-110,-150) scale(1,1)"><path fill="none" stroke="#000000" d="M 248 305.5 L 312 280 L 376 305.5 L 312 331 L 248 305.5 L 248 305.5" stroke-miterlimit="10"/></g><g transform="translate(-110,-150) scale(1,1)"><g><path fill="none" stroke="none"/><text fill="#000000" stroke="none" font-family="Arial" font-size="13px" font-style="normal" font-weight="normal" text-decoration="none" x="282.010498046875" y="305.5">run in new</text><text fill="#000000" stroke="none" font-family="Arial" font-size="13px" font-style="normal" font-weight="normal" text-decoration="none" x="287.42822265625" y="318.5">context?</text></g></g><g transform="translate(-110,-150) scale(1,1)"><rect fill="#ffffff" stroke="none" x="368" y="352" width="90.53173828125" height="45"/></g><g transform="translate(-110,-150) scale(1,1)"><path fill="none" stroke="#000000" d="M 368 352 L 458.53173828125 352 L 458.53173828125 397 L 368 397 L 368 352 Z Z" stroke-miterlimit="10"/></g><g transform="translate(-110,-150) scale(1,1)"><g><path fill="none" stroke="none"/><text fill="#000000" stroke="none" font-family="Arial" font-size="13px" font-style="normal" font-weight="normal" text-decoration="none" x="388.69091796875" y="374.5">evaluate</text><text fill="#000000" stroke="none" font-family="Arial" font-size="13px" font-style="normal" font-weight="normal" text-decoration="none" x="393.746826171875" y="387.5">bundle</text></g></g><g transform="translate(-110,-150) scale(1,1)"><rect fill="#ffffff" stroke="none" x="272" y="344" width="73.18994140625" height="45"/></g><g transform="translate(-110,-150) scale(1,1)"><path fill="none" stroke="#000000" d="M 272 344 L 345.18994140625 344 L 345.18994140625 389 L 272 389 L 272 344 Z Z" stroke-miterlimit="10"/></g><g transform="translate(-110,-150) scale(1,1)"><g><path fill="none" stroke="none"/><text fill="#000000" stroke="none" font-family="Arial" font-size="13px" font-style="normal" font-weight="normal" text-decoration="none" x="299.200439453125" y="366.5">run</text><text fill="#000000" stroke="none" font-family="Arial" font-size="13px" font-style="normal" font-weight="normal" text-decoration="none" x="289.075927734375" y="379.5">bundle</text></g></g><g transform="translate(-110,-150) scale(1,1)"><path fill="#ffffff" stroke="none" d="M 172 224 L 192 248 L 152 248 L 172 224"/></g><g transform="translate(-110,-150) scale(1,1)"><path fill="none" stroke="#000000" d="M 172 224 L 192 248 L 152 248 L 172 224 L 172 224" stroke-miterlimit="10"/></g><g transform="translate(-110,-150) scale(1,1)"><g><path fill="none" stroke="none"/></g></g><g transform="translate(-110,-150) scale(1,1)"><rect fill="#ffffff" stroke="none" x="120" y="288" width="109.3271484375" height="32"/></g><g transform="translate(-110,-150) scale(1,1)"><path fill="none" stroke="#000000" d="M 120 288 L 229.3271484375 288 L 229.3271484375 320 L 120 320 L 120 288 Z Z" stroke-miterlimit="10"/></g><g transform="translate(-110,-150) scale(1,1)"><g><path fill="none" stroke="none"/><text fill="#000000" stroke="none" font-family="Arial" font-size="13px" font-style="normal" font-weight="normal" text-decoration="none" x="129.5" y="310.5">createRenderer</text></g></g><g transform="translate(-110,-150) scale(1,1)"><rect fill="#ffffff" stroke="none" x="120" y="416" width="104.26806640625" height="32"/></g><g transform="translate(-110,-150) scale(1,1)"><path fill="none" stroke="#000000" d="M 120 416 L 224.26806640625 416 L 224.26806640625 448 L 120 448 L 120 416 Z Z" stroke-miterlimit="10"/></g><g transform="translate(-110,-150) scale(1,1)"><g><path fill="none" stroke="none"/><text fill="#000000" stroke="none" font-family="Arial" font-size="13px" font-style="normal" font-weight="normal" text-decoration="none" x="129.5" y="438.5">renderToString</text></g></g><g transform="translate(-110,-150) scale(1,1)"><path fill="none" stroke="#000000" d="M 288 184 L 216 184" stroke-miterlimit="10"/></g><g transform="translate(-110,-150) scale(1,1)"><path fill="#000000" stroke="none" d="M 226.16267485762415 179.790482243984 L 216 184 L 226.16267485762415 188.209517756016"/></g><g transform="translate(-110,-150) scale(1,1)"><path fill="none" stroke="#000000" d="M 226.16267485762415 179.790482243984 L 216 184 L 226.16267485762415 188.209517756016 L 226.16267485762415 179.790482243984" stroke-miterlimit="10"/></g><g transform="translate(-110,-150) scale(1,1)"><path fill="none" stroke="#000000" d="M 172 200 L 172 224" stroke-miterlimit="10"/></g><g transform="translate(-110,-150) scale(1,1)"><path fill="#000000" stroke="none" d="M 167.790482243984 213.83732514237585 L 172 224 L 176.209517756016 213.83732514237585"/></g><g transform="translate(-110,-150) scale(1,1)"><path fill="none" stroke="#000000" d="M 167.790482243984 213.83732514237585 L 172 224 L 176.209517756016 213.83732514237585 L 167.790482243984 213.83732514237585" stroke-miterlimit="10"/></g><g transform="translate(-110,-150) scale(1,1)"><path fill="none" stroke="#000000" d="M 160 248 L 160 288" stroke-miterlimit="10"/></g><g transform="translate(-110,-150) scale(1,1)"><path fill="#000000" stroke="none" d="M 155.790482243984 277.83732514237585 L 160 288 L 164.209517756016 277.83732514237585"/></g><g transform="translate(-110,-150) scale(1,1)"><path fill="none" stroke="#000000" d="M 155.790482243984 277.83732514237585 L 160 288 L 164.209517756016 277.83732514237585 L 155.790482243984 277.83732514237585" stroke-miterlimit="10"/></g><g transform="translate(-110,-150) scale(1,1)"><path fill="none" stroke="#000000" d="M 192 248 L 240 248" stroke-miterlimit="10"/></g><g transform="translate(-110,-150) scale(1,1)"><path fill="#000000" stroke="none" d="M 229.83732514237585 252.209517756016 L 240 248 L 229.83732514237585 243.790482243984"/></g><g transform="translate(-110,-150) scale(1,1)"><path fill="none" stroke="#000000" d="M 229.83732514237585 252.209517756016 L 240 248 L 229.83732514237585 243.790482243984 L 229.83732514237585 252.209517756016" stroke-miterlimit="10"/></g><g transform="translate(-110,-150) scale(1,1)"><path fill="none" stroke="#000000" d="M 312 256 L 312 280" stroke-miterlimit="10"/></g><g transform="translate(-110,-150) scale(1,1)"><path fill="#000000" stroke="none" d="M 307.790482243984 269.83732514237585 L 312 280 L 316.209517756016 269.83732514237585"/></g><g transform="translate(-110,-150) scale(1,1)"><path fill="none" stroke="#000000" d="M 307.790482243984 269.83732514237585 L 312 280 L 316.209517756016 269.83732514237585 L 307.790482243984 269.83732514237585" stroke-miterlimit="10"/></g><g transform="translate(-110,-150) scale(1,1)"><path fill="none" stroke="#000000" d="M 310 331 L 310 344" stroke-miterlimit="10"/></g><g transform="translate(-110,-150) scale(1,1)"><path fill="#000000" stroke="none" d="M 305.790482243984 333.83732514237585 L 310 344 L 314.209517756016 333.83732514237585"/></g><g transform="translate(-110,-150) scale(1,1)"><path fill="none" stroke="#000000" d="M 305.790482243984 333.83732514237585 L 310 344 L 314.209517756016 333.83732514237585 L 305.790482243984 333.83732514237585" stroke-miterlimit="10"/></g><g transform="translate(-110,-150) scale(1,1)"><path fill="none" stroke="#000000" d="M 376 304 L 408 304 M 408 304 A 8 8 0 0 1 416 312 L 416 352" stroke-miterlimit="10"/></g><g transform="translate(-110,-150) scale(1,1)"><path fill="#000000" stroke="none" d="M 411.790482243984 341.83732514237585 L 416 352 L 420.209517756016 341.83732514237585"/></g><g transform="translate(-110,-150) scale(1,1)"><path fill="none" stroke="#000000" d="M 411.790482243984 341.83732514237585 L 416 352 L 420.209517756016 341.83732514237585 L 411.790482243984 341.83732514237585" stroke-miterlimit="10"/></g><g transform="translate(-110,-150) scale(1,1)"><path fill="none" stroke="#000000" d="M 272 432 L 224 432" stroke-miterlimit="10"/></g><g transform="translate(-110,-150) scale(1,1)"><path fill="#000000" stroke="none" d="M 234.16267485762415 427.790482243984 L 224 432 L 234.16267485762415 436.209517756016"/></g><g transform="translate(-110,-150) scale(1,1)"><path fill="none" stroke="#000000" d="M 234.16267485762415 427.790482243984 L 224 432 L 234.16267485762415 436.209517756016 L 234.16267485762415 427.790482243984" stroke-miterlimit="10"/></g><g transform="translate(-110,-150) scale(1,1)"><path fill="none" stroke="#000000" d="M 176 320 L 176 416" stroke-miterlimit="10"/></g><g transform="translate(-110,-150) scale(1,1)"><path fill="#000000" stroke="none" d="M 171.790482243984 405.83732514237585 L 176 416 L 180.209517756016 405.83732514237585"/></g><g transform="translate(-110,-150) scale(1,1)"><path fill="none" stroke="#000000" d="M 171.790482243984 405.83732514237585 L 176 416 L 180.209517756016 405.83732514237585 L 171.790482243984 405.83732514237585" stroke-miterlimit="10"/></g><g transform="translate(-110,-150) scale(1,1)"><path fill="none" stroke="#000000" d="M 424 397 L 424 430 M 424 430 A 8 8 0 0 1 416 438 L 344 438" stroke-miterlimit="10"/></g><g transform="translate(-110,-150) scale(1,1)"><path fill="#000000" stroke="none" d="M 354.16267485762415 433.790482243984 L 344 438 L 354.16267485762415 442.209517756016"/></g><g transform="translate(-110,-150) scale(1,1)"><path fill="none" stroke="#000000" d="M 354.16267485762415 433.790482243984 L 344 438 L 354.16267485762415 442.209517756016 L 354.16267485762415 433.790482243984" stroke-miterlimit="10"/></g><g transform="translate(-110,-150) scale(1,1)"><path fill="#ffffff" stroke="none" d="M 284 408 L 344 408 L 332 453 L 272 453 L 284 408"/></g><g transform="translate(-110,-150) scale(1,1)"><path fill="none" stroke="#000000" d="M 284 408 L 344 408 L 332 453 L 272 453 L 284 408 L 284 408" stroke-miterlimit="10"/></g><g transform="translate(-110,-150) scale(1,1)"><g><path fill="none" stroke="none"/><text fill="#000000" stroke="none" font-family="Arial" font-size="13px" font-style="normal" font-weight="normal" text-decoration="none" x="296.67578125" y="430.5">Vue</text><text fill="#000000" stroke="none" font-family="Arial" font-size="13px" font-style="normal" font-weight="normal" text-decoration="none" x="296.4345703125" y="443.5">App</text></g></g><g transform="translate(-110,-150) scale(1,1)"><path fill="none" stroke="#000000" d="M 313 389 L 313 408" stroke-miterlimit="10"/></g><g transform="translate(-110,-150) scale(1,1)"><path fill="#000000" stroke="none" d="M 308.790482243984 397.83732514237585 L 313 408 L 317.209517756016 397.83732514237585"/></g><g transform="translate(-110,-150) scale(1,1)"><path fill="none" stroke="#000000" d="M 308.790482243984 397.83732514237585 L 313 408 L 317.209517756016 397.83732514237585 L 308.790482243984 397.83732514237585" stroke-miterlimit="10"/></g><g transform="translate(-110,-150) scale(1,1)"><path fill="#ffffff" stroke="none" d="M 153 472 L 198.38818359375 472 L 189.38818359375 504 L 144 504 L 153 472"/></g><g transform="translate(-110,-150) scale(1,1)"><path fill="none" stroke="#000000" d="M 153 472 L 198.38818359375 472 L 189.38818359375 504 L 144 504 L 153 472 L 153 472" stroke-miterlimit="10"/></g><g transform="translate(-110,-150) scale(1,1)"><g><path fill="none" stroke="none"/><text fill="#000000" stroke="none" font-family="Arial" font-size="13px" font-style="normal" font-weight="normal" text-decoration="none" x="153.5" y="494.5">HTML</text></g></g><g transform="translate(-110,-150) scale(1,1)"><path fill="#ffffff" stroke="none" d="M 272.5 472 L 327.13720703125 472 Q 343.63720703125 472 343.63720703125 488.5 L 343.63720703125 487.5 Q 343.63720703125 504 327.13720703125 504 L 272.5 504 Q 256 504 256 487.5 L 256 488.5 Q 256 472 272.5 472 Z"/></g><g transform="translate(-110,-150) scale(1,1)"><path fill="none" stroke="#000000" d="M 272.5 472 L 327.13720703125 472 Q 343.63720703125 472 343.63720703125 488.5 L 343.63720703125 487.5 Q 343.63720703125 504 327.13720703125 504 L 272.5 504 Q 256 504 256 487.5 L 256 488.5 Q 256 472 272.5 472 Z" stroke-miterlimit="10"/></g><g transform="translate(-110,-150) scale(1,1)"><g><path fill="none" stroke="none"/><text fill="#000000" stroke="none" font-family="Arial" font-size="13px" font-style="normal" font-weight="normal" text-decoration="none" x="288.253173828125" y="494.5">End</text></g></g><g transform="translate(-110,-150) scale(1,1)"><path fill="none" stroke="#000000" d="M 176 448 L 176 472" stroke-miterlimit="10"/></g><g transform="translate(-110,-150) scale(1,1)"><path fill="#000000" stroke="none" d="M 171.790482243984 461.83732514237585 L 176 472 L 180.209517756016 461.83732514237585"/></g><g transform="translate(-110,-150) scale(1,1)"><path fill="none" stroke="#000000" d="M 171.790482243984 461.83732514237585 L 176 472 L 180.209517756016 461.83732514237585 L 171.790482243984 461.83732514237585" stroke-miterlimit="10"/></g><g transform="translate(-110,-150) scale(1,1)"><path fill="none" stroke="#000000" d="M 198 488 L 256 488" stroke-miterlimit="10"/></g><g transform="translate(-110,-150) scale(1,1)"><path fill="#000000" stroke="none" d="M 245.83732514237585 492.209517756016 L 256 488 L 245.83732514237585 483.790482243984"/></g><g transform="translate(-110,-150) scale(1,1)"><path fill="none" stroke="#000000" d="M 245.83732514237585 492.209517756016 L 256 488 L 245.83732514237585 483.790482243984 L 245.83732514237585 492.209517756016" stroke-miterlimit="10"/></g><g transform="translate(-110,-150) scale(1,1)"><g><path fill="none" stroke="none"/><text fill="#000000" stroke="none" font-family="Arial" font-size="13px" font-style="normal" font-weight="normal" text-decoration="none" x="357" y="498">https://harttle.land</text></g></g></g></svg>