<svg version="1.1" xmlns="http://www.w3.org/2000/svg" xmlns:xlink="http://www.w3.org/1999/xlink" width="484.33984375" height="260"><defs/><g><g transform="translate(-14,-302) scale(1,1)"><rect fill="#C0C0C0" stroke="none" x="375" y="319" width="118.458984375" height="72" opacity="0.2"/></g><g transform="translate(-14,-302) scale(1,1)"><rect fill="#ffffff" stroke="none" x="368" y="312" width="118.458984375" height="72"/></g><g transform="translate(-14,-302) scale(1,1)"><path fill="none" stroke="#000000" d="M 368 312 L 486.458984375 312 L 486.458984375 384 L 368 384 L 368 312 Z Z" stroke-miterlimit="10"/></g><g transform="translate(-14,-302) scale(1,1)"><path fill="none" stroke="#000000" d="M 368 337 L 486.458984375 337" stroke-miterlimit="10"/></g><g transform="translate(-14,-302) scale(1,1)"><path fill="none" stroke="#000000" d="M 368 347 L 486.458984375 347" stroke-miterlimit="10"/></g><g transform="translate(-14,-302) scale(1,1)"><g><path fill="none" stroke="none"/><text fill="#000000" stroke="none" font-family="Arial" font-size="13px" font-style="normal" font-weight="bold" text-decoration="none" x="379.891845703125" y="331.5">BundleRenderer</text></g></g><g transform="translate(-14,-302) scale(1,1)"><g><path fill="none" stroke="none"/><text fill="#000000" stroke="none" font-family="Arial" font-size="13px" font-style="normal" font-weight="normal" text-decoration="none" x="373" y="364.5">+renderToString()</text></g></g><g transform="translate(-14,-302) scale(1,1)"><g><path fill="none" stroke="none"/><text fill="#000000" stroke="none" font-family="Arial" font-size="13px" font-style="normal" font-weight="normal" text-decoration="none" x="373" y="379.5">+renderToStream()</text></g></g><g transform="translate(-14,-302) scale(1,1)"><rect fill="#C0C0C0" stroke="none" x="215" y="319" width="118.458984375" height="72" opacity="0.2"/></g><g transform="translate(-14,-302) scale(1,1)"><rect fill="#ffffff" stroke="none" x="208" y="312" width="118.458984375" height="72"/></g><g transform="translate(-14,-302) scale(1,1)"><path fill="none" stroke="#000000" d="M 208 312 L 326.458984375 312 L 326.458984375 384 L 208 384 L 208 312 Z Z" stroke-miterlimit="10"/></g><g transform="translate(-14,-302) scale(1,1)"><path fill="none" stroke="#000000" d="M 208 337 L 326.458984375 337" stroke-miterlimit="10"/></g><g transform="translate(-14,-302) scale(1,1)"><path fill="none" stroke="#000000" d="M 208 347 L 326.458984375 347" stroke-miterlimit="10"/></g><g transform="translate(-14,-302) scale(1,1)"><g><path fill="none" stroke="none"/><text fill="#000000" stroke="none" font-family="Arial" font-size="13px" font-style="normal" font-weight="bold" text-decoration="none" x="240.13134765625" y="331.5">Renderer</text></g></g><g transform="translate(-14,-302) scale(1,1)"><g><path fill="none" stroke="none"/><text fill="#000000" stroke="none" font-family="Arial" font-size="13px" font-style="normal" font-weight="normal" text-decoration="none" x="213" y="364.5">+renderToString()</text></g></g><g transform="translate(-14,-302) scale(1,1)"><g><path fill="none" stroke="none"/><text fill="#000000" stroke="none" font-family="Arial" font-size="13px" font-style="normal" font-weight="normal" text-decoration="none" x="213" y="379.5">+renderToStream()</text></g></g><g transform="translate(-14,-302) scale(1,1)"><rect fill="#C0C0C0" stroke="none" x="31" y="471" width="144" height="85" opacity="0.2"/></g><g transform="translate(-14,-302) scale(1,1)"><rect fill="#ffffff" stroke="none" x="24" y="464" width="144" height="85"/></g><g transform="translate(-14,-302) scale(1,1)"><path fill="none" stroke="#000000" d="M 24 464 L 168 464 L 168 549 L 24 549 L 24 464 Z Z" stroke-miterlimit="10"/></g><g transform="translate(-14,-302) scale(1,1)"><path fill="none" stroke="#000000" d="M 24 489 L 168 489" stroke-miterlimit="10"/></g><g transform="translate(-14,-302) scale(1,1)"><path fill="none" stroke="#000000" d="M 24 512 L 168 512" stroke-miterlimit="10"/></g><g transform="translate(-14,-302) scale(1,1)"><g><path fill="none" stroke="none"/><text fill="#000000" stroke="none" font-family="Arial" font-size="13px" font-style="normal" font-weight="bold" text-decoration="none" x="52.280517578125" y="483.5">RenderContext</text></g></g><g transform="translate(-14,-302) scale(1,1)"><g><path fill="none" stroke="none"/><text fill="#000000" stroke="none" font-family="Arial" font-size="13px" font-style="normal" font-weight="normal" text-decoration="none" x="29" y="506.5">-renderStates: State[]</text></g></g><g transform="translate(-14,-302) scale(1,1)"><g><path fill="none" stroke="none"/><text fill="#000000" stroke="none" font-family="Arial" font-size="13px" font-style="normal" font-weight="normal" text-decoration="none" x="29" y="529.5">+next()</text></g></g><g transform="translate(-14,-302) scale(1,1)"><g><path fill="none" stroke="none"/><text fill="#000000" stroke="none" font-family="Arial" font-size="13px" font-style="normal" font-weight="normal" text-decoration="none" x="29" y="544.5">+write()</text></g></g><g transform="translate(-14,-302) scale(1,1)"><rect fill="#C0C0C0" stroke="none" x="199" y="439" width="148.08349609375" height="117" opacity="0.2"/></g><g transform="translate(-14,-302) scale(1,1)"><rect fill="#ffffff" stroke="none" x="192" y="432" width="148.08349609375" height="117"/></g><g transform="translate(-14,-302) scale(1,1)"><path fill="none" stroke="#000000" d="M 192 432 L 340.08349609375 432 L 340.08349609375 549 L 192 549 L 192 432 Z Z" stroke-miterlimit="10"/></g><g transform="translate(-14,-302) scale(1,1)"><path fill="none" stroke="#000000" d="M 192 457 L 340.08349609375 457" stroke-miterlimit="10"/></g><g transform="translate(-14,-302) scale(1,1)"><path fill="none" stroke="#000000" d="M 192 467 L 340.08349609375 467" stroke-miterlimit="10"/></g><g transform="translate(-14,-302) scale(1,1)"><g><path fill="none" stroke="none"/><text fill="#000000" stroke="none" font-family="Arial" font-size="13px" font-style="normal" font-weight="bold" text-decoration="none" x="212.569091796875" y="451.5">TemplateRenderer</text></g></g><g transform="translate(-14,-302) scale(1,1)"><g><path fill="none" stroke="none"/><text fill="#000000" stroke="none" font-family="Arial" font-size="13px" font-style="normal" font-weight="normal" text-decoration="none" x="197" y="484.5">+render()</text></g></g><g transform="translate(-14,-302) scale(1,1)"><g><path fill="none" stroke="none"/><text fill="#000000" stroke="none" font-family="Arial" font-size="13px" font-style="normal" font-weight="normal" text-decoration="none" x="197" y="499.5">-parsedTemplate()</text></g></g><g transform="translate(-14,-302) scale(1,1)"><g><path fill="none" stroke="none"/><text fill="#000000" stroke="none" font-family="Arial" font-size="13px" font-style="normal" font-weight="normal" text-decoration="none" x="197" y="514.5">-renderStyles()</text></g></g><g transform="translate(-14,-302) scale(1,1)"><g><path fill="none" stroke="none"/><text fill="#000000" stroke="none" font-family="Arial" font-size="13px" font-style="normal" font-weight="normal" text-decoration="none" x="197" y="529.5">-renderScripts()</text></g></g><g transform="translate(-14,-302) scale(1,1)"><g><path fill="none" stroke="none"/><text fill="#000000" stroke="none" font-family="Arial" font-size="13px" font-style="normal" font-weight="normal" text-decoration="none" x="197" y="544.5">-renderResourceHints()</text></g></g><g transform="translate(-14,-302) scale(1,1)"><path fill="none" stroke="#000000" d="M 327 348 L 367 348" stroke-miterlimit="10"/></g><g transform="translate(-14,-302) scale(1,1)"><path fill="#000000" stroke="none" d="M 356.83732514237585 352.209517756016 L 367 348 L 356.83732514237585 343.790482243984 L 345 348"/></g><g transform="translate(-14,-302) scale(1,1)"><path fill="none" stroke="#000000" d="M 356.83732514237585 352.209517756016 L 367 348 L 356.83732514237585 343.790482243984 L 345 348 L 356.83732514237585 352.209517756016" stroke-miterlimit="10"/></g><g transform="translate(-14,-302) scale(1,1)"><rect fill="#C0C0C0" stroke="none" x="31" y="335" width="142.326171875" height="102" opacity="0.2"/></g><g transform="translate(-14,-302) scale(1,1)"><rect fill="#ffffff" stroke="none" x="24" y="328" width="142.326171875" height="102"/></g><g transform="translate(-14,-302) scale(1,1)"><path fill="none" stroke="#000000" d="M 24 328 L 166.326171875 328 L 166.326171875 430 L 24 430 L 24 328 Z Z" stroke-miterlimit="10"/></g><g transform="translate(-14,-302) scale(1,1)"><path fill="none" stroke="#000000" d="M 24 353 L 166.326171875 353" stroke-miterlimit="10"/></g><g transform="translate(-14,-302) scale(1,1)"><path fill="none" stroke="#000000" d="M 24 363 L 166.326171875 363" stroke-miterlimit="10"/></g><g transform="translate(-14,-302) scale(1,1)"><g><path fill="none" stroke="none"/><text fill="#000000" stroke="none" font-family="Arial" font-size="13px" font-style="normal" font-weight="bold" text-decoration="none" x="48.9140625" y="347.5">RenderFunction</text></g></g><g transform="translate(-14,-302) scale(1,1)"><g><path fill="none" stroke="none"/><text fill="#000000" stroke="none" font-family="Arial" font-size="13px" font-style="normal" font-weight="normal" text-decoration="none" x="29" y="380.5">+render(component)</text></g></g><g transform="translate(-14,-302) scale(1,1)"><g><path fill="none" stroke="none"/><text fill="#000000" stroke="none" font-family="Arial" font-size="13px" font-style="normal" font-weight="normal" text-decoration="none" x="29" y="395.5">+renderNode()</text></g></g><g transform="translate(-14,-302) scale(1,1)"><g><path fill="none" stroke="none"/><text fill="#000000" stroke="none" font-family="Arial" font-size="13px" font-style="normal" font-weight="normal" text-decoration="none" x="29" y="410.5">+renderStringNode()</text></g></g><g transform="translate(-14,-302) scale(1,1)"><g><path fill="none" stroke="none"/><text fill="#000000" stroke="none" font-family="Arial" font-size="13px" font-style="normal" font-weight="normal" text-decoration="none" x="29" y="425.5">+renderElement()</text></g></g><g transform="translate(-14,-302) scale(1,1)"><path fill="none" stroke="#000000" d="M 96 463 L 95 431" stroke-miterlimit="10"/></g><g transform="translate(-14,-302) scale(1,1)"><path fill="#000000" stroke="none" d="M 99.52489246431415 441.0262330008031 L 95 431 L 91.10996480103222 441.2891994902807 L 95.68716455230987 452.9892656739157"/></g><g transform="translate(-14,-302) scale(1,1)"><path fill="none" stroke="#000000" d="M 99.52489246431415 441.0262330008031 L 95 431 L 91.10996480103222 441.2891994902807 L 95.68716455230987 452.9892656739157 L 99.52489246431415 441.0262330008031" stroke-miterlimit="10"/></g><g transform="translate(-14,-302) scale(1,1)"><rect fill="#C0C0C0" stroke="none" x="375" y="439" width="120" height="85" opacity="0.2"/></g><g transform="translate(-14,-302) scale(1,1)"><rect fill="#ffffff" stroke="none" x="368" y="432" width="120" height="85"/></g><g transform="translate(-14,-302) scale(1,1)"><path fill="none" stroke="#000000" d="M 368 432 L 488 432 L 488 517 L 368 517 L 368 432 Z Z" stroke-miterlimit="10"/></g><g transform="translate(-14,-302) scale(1,1)"><path fill="none" stroke="#000000" d="M 368 457 L 488 457" stroke-miterlimit="10"/></g><g transform="translate(-14,-302) scale(1,1)"><path fill="none" stroke="#000000" d="M 368 480 L 488 480" stroke-miterlimit="10"/></g><g transform="translate(-14,-302) scale(1,1)"><g><path fill="none" stroke="none"/><text fill="#000000" stroke="none" font-family="Arial" font-size="13px" font-style="normal" font-weight="bold" text-decoration="none" x="386.44189453125" y="451.5">BundleRunner</text></g></g><g transform="translate(-14,-302) scale(1,1)"><g><path fill="none" stroke="none"/><text fill="#000000" stroke="none" font-family="Arial" font-size="13px" font-style="normal" font-weight="normal" text-decoration="none" x="373" y="474.5">-sandbox</text></g></g><g transform="translate(-14,-302) scale(1,1)"><g><path fill="none" stroke="none"/><text fill="#000000" stroke="none" font-family="Arial" font-size="13px" font-style="normal" font-weight="normal" text-decoration="none" x="373" y="497.5">+run()</text></g></g><g transform="translate(-14,-302) scale(1,1)"><g><path fill="none" stroke="none"/><text fill="#000000" stroke="none" font-family="Arial" font-size="13px" font-style="normal" font-weight="normal" text-decoration="none" x="373" y="512.5">-evaluate()</text></g></g><g transform="translate(-14,-302) scale(1,1)"><path fill="none" stroke="#000000" d="M 428 431 L 427 385" stroke-miterlimit="10"/></g><g transform="translate(-14,-302) scale(1,1)"><path fill="#000000" stroke="none" d="M 431.42939894957703 395.06878468065963 L 427 385 L 423.0123521078249 395.25176395982817 L 427.47814789900275 406.99480335412613"/></g><g transform="translate(-14,-302) scale(1,1)"><path fill="none" stroke="#000000" d="M 431.42939894957703 395.06878468065963 L 427 385 L 423.0123521078249 395.25176395982817 L 427.47814789900275 406.99480335412613 L 431.42939894957703 395.06878468065963" stroke-miterlimit="10"/></g><g transform="translate(-14,-302) scale(1,1)"><path fill="none" stroke="#000000" d="M 266 431 L 267 385" stroke-miterlimit="10"/></g><g transform="translate(-14,-302) scale(1,1)"><path fill="#000000" stroke="none" d="M 270.9876478921751 395.25176395982817 L 267 385 L 262.57060105042297 395.06878468065963 L 266.52185210099725 406.99480335412613"/></g><g transform="translate(-14,-302) scale(1,1)"><path fill="none" stroke="#000000" d="M 270.9876478921751 395.25176395982817 L 267 385 L 262.57060105042297 395.06878468065963 L 266.52185210099725 406.99480335412613 L 270.9876478921751 395.25176395982817" stroke-miterlimit="10"/></g><g transform="translate(-14,-302) scale(1,1)"><path fill="none" stroke="#000000" d="M 167 366 L 207 359" stroke-miterlimit="10"/></g><g transform="translate(-14,-302) scale(1,1)"><path fill="#000000" stroke="none" d="M 197.71509370474197 364.89834850515615 L 207 359 L 196.26381757014394 356.6053420217388 L 185.3293297225745 362.79236729854944"/></g><g transform="translate(-14,-302) scale(1,1)"><path fill="none" stroke="#000000" d="M 197.71509370474197 364.89834850515615 L 207 359 L 196.26381757014394 356.6053420217388 L 185.3293297225745 362.79236729854944 L 197.71509370474197 364.89834850515615" stroke-miterlimit="10"/></g><g transform="translate(-14,-302) scale(1,1)"><g><path fill="none" stroke="none"/><text fill="#000000" stroke="none" font-family="Arial" font-size="13px" font-style="normal" font-weight="normal" text-decoration="none" x="381" y="546">https://harttle.land</text></g></g></g></svg>